<svg xmlns="http://www.w3.org/2000/svg" width="1280" height="760" viewBox="0 0 1280 760" role="img" aria-label="Bilingual predictive maintenance dashboard preview">
  <rect width="1280" height="760" fill="#f3f6fa"/>
  <rect width="1280" height="96" fill="#14213d"/>
  <text x="42" y="48" font-family="Microsoft YaHei, Noto Sans CJK SC, Segoe UI, Arial, sans-serif" font-size="30" font-weight="700" fill="#ffffff">AI 预测性维护部署工具包</text>
  <text x="42" y="78" font-family="Segoe UI, Arial, sans-serif" font-size="17" fill="#dce6f2">AI Predictive Maintenance Deployment Toolkit</text>
  <text x="560" y="78" font-family="Microsoft YaHei, Noto Sans CJK SC, Segoe UI, Arial, sans-serif" font-size="14" fill="#dce6f2">RUL monitoring, intervention queue, governance / RUL 监控、维护队列、部署治理</text>

  <g font-family="Microsoft YaHei, Noto Sans CJK SC, Segoe UI, Arial, sans-serif">
    <g transform="translate(42 126)">
      <rect width="245" height="108" rx="8" fill="#ffffff" stroke="#d7dee8"/>
      <rect width="5" height="108" fill="#3d5a80"/>
      <text x="22" y="35" font-size="17" fill="#516070">资产数量 / Fleet assets</text>
      <text x="22" y="84" font-size="31" font-weight="700" fill="#17202a">90</text>
    </g>
    <g transform="translate(315 126)">
      <rect width="245" height="108" rx="8" fill="#ffffff" stroke="#d7dee8"/>
      <rect width="5" height="108" fill="#d1495b"/>
      <text x="22" y="35" font-size="17" fill="#516070">高风险 / High risk</text>
      <text x="22" y="84" font-size="31" font-weight="700" fill="#17202a">17</text>
    </g>
    <g transform="translate(588 126)">
      <rect width="245" height="108" rx="8" fill="#ffffff" stroke="#d7dee8"/>
      <rect width="5" height="108" fill="#edae49"/>
      <text x="22" y="35" font-size="17" fill="#516070">中风险 / Medium risk</text>
      <text x="22" y="84" font-size="31" font-weight="700" fill="#17202a">19</text>
    </g>
    <g transform="translate(861 126)">
      <rect width="245" height="108" rx="8" fill="#ffffff" stroke="#d7dee8"/>
      <rect width="5" height="108" fill="#2a9d8f"/>
      <text x="22" y="35" font-size="17" fill="#516070">RUL 中位数 / Median RUL</text>
      <text x="22" y="84" font-size="31" font-weight="700" fill="#17202a">69.9</text>
    </g>

    <rect x="42" y="267" width="718" height="435" rx="8" fill="#ffffff" stroke="#d7dee8"/>
    <text x="66" y="309" font-size="23" font-weight="700" fill="#17202a">维护干预队列 / Maintenance Intervention Queue</text>
    <text x="66" y="352" font-size="15" font-weight="700" fill="#516070">设备</text>
    <text x="144" y="352" font-size="15" font-weight="700" fill="#516070">周期</text>
    <text x="235" y="352" font-size="15" font-weight="700" fill="#516070">预测 RUL</text>
    <text x="350" y="352" font-size="15" font-weight="700" fill="#516070">风险</text>
    <text x="457" y="352" font-size="15" font-weight="700" fill="#516070">维护建议 / Action</text>

    <g font-size="15" fill="#17202a">
      <line x1="66" y1="362" x2="735" y2="362" stroke="#edf1f5"/>
      <text x="66" y="390">81</text><text x="144" y="390">193</text><text x="235" y="390">0.0</text><rect x="350" y="371" width="83" height="25" rx="6" fill="#d1495b"/><text x="361" y="389" font-size="13" font-weight="700" fill="#ffffff">高 / HIGH</text><text x="457" y="390">下个维护窗口安排干预</text>
      <line x1="66" y1="395" x2="735" y2="395" stroke="#edf1f5"/>
      <text x="66" y="423">68</text><text x="144" y="423">207</text><text x="235" y="423">0.8</text><rect x="350" y="404" width="83" height="25" rx="6" fill="#d1495b"/><text x="361" y="422" font-size="13" font-weight="700" fill="#ffffff">高 / HIGH</text><text x="457" y="423">下个维护窗口安排干预</text>
      <line x1="66" y1="428" x2="735" y2="428" stroke="#edf1f5"/>
      <text x="66" y="456">55</text><text x="144" y="456">201</text><text x="235" y="456">4.1</text><rect x="350" y="437" width="83" height="25" rx="6" fill="#d1495b"/><text x="361" y="455" font-size="13" font-weight="700" fill="#ffffff">高 / HIGH</text><text x="457" y="456">下个维护窗口安排干预</text>
      <line x1="66" y1="461" x2="735" y2="461" stroke="#edf1f5"/>
      <text x="66" y="489">76</text><text x="144" y="489">152</text><text x="235" y="489">4.5</text><rect x="350" y="470" width="83" height="25" rx="6" fill="#d1495b"/><text x="361" y="488" font-size="13" font-weight="700" fill="#ffffff">高 / HIGH</text><text x="457" y="489">下个维护窗口安排干预</text>
      <line x1="66" y1="494" x2="735" y2="494" stroke="#edf1f5"/>
      <text x="66" y="522">47</text><text x="144" y="522">206</text><text x="235" y="522">5.7</text><rect x="350" y="503" width="83" height="25" rx="6" fill="#d1495b"/><text x="361" y="521" font-size="13" font-weight="700" fill="#ffffff">高 / HIGH</text><text x="457" y="522">下个维护窗口安排干预</text>
      <line x1="66" y1="527" x2="735" y2="527" stroke="#edf1f5"/>
      <text x="66" y="555">3</text><text x="144" y="555">122</text><text x="235" y="555">9.5</text><rect x="350" y="536" width="83" height="25" rx="6" fill="#d1495b"/><text x="361" y="554" font-size="13" font-weight="700" fill="#ffffff">高 / HIGH</text><text x="457" y="555">下个维护窗口安排干预</text>
      <line x1="66" y1="560" x2="735" y2="560" stroke="#edf1f5"/>
      <text x="66" y="588">8</text><text x="144" y="588">175</text><text x="235" y="588">10.9</text><rect x="350" y="569" width="83" height="25" rx="6" fill="#d1495b"/><text x="361" y="587" font-size="13" font-weight="700" fill="#ffffff">高 / HIGH</text><text x="457" y="588">下个维护窗口安排干预</text>
    </g>

    <rect x="800" y="267" width="438" height="435" rx="8" fill="#ffffff" stroke="#d7dee8"/>
    <text x="824" y="302" font-size="22" font-weight="700" fill="#17202a">各设备预测 RUL</text>
    <text x="824" y="330" font-size="17" font-weight="700" fill="#516070">Predicted RUL by Asset</text>
    <line x1="835" y1="650" x2="1208" y2="650" stroke="#ccd4dd" stroke-width="2"/>
    <line x1="835" y1="345" x2="835" y2="650" stroke="#ccd4dd" stroke-width="2"/>
    <rect x="837" y="646" width="18" height="4" fill="#d1495b"/>
    <rect x="862" y="644" width="18" height="6" fill="#d1495b"/>
    <rect x="887" y="641" width="18" height="9" fill="#d1495b"/>
    <rect x="912" y="637" width="18" height="13" fill="#d1495b"/>
    <rect x="937" y="632" width="18" height="18" fill="#d1495b"/>
    <rect x="962" y="626" width="18" height="24" fill="#d1495b"/>
    <rect x="987" y="625" width="18" height="25" fill="#d1495b"/>
    <rect x="1012" y="618" width="18" height="32" fill="#d1495b"/>
    <rect x="1037" y="615" width="18" height="35" fill="#d1495b"/>
    <rect x="1062" y="609" width="18" height="41" fill="#d1495b"/>
    <rect x="1087" y="606" width="18" height="44" fill="#d1495b"/>
    <rect x="1112" y="601" width="18" height="49" fill="#edae49"/>
    <rect x="1137" y="598" width="18" height="52" fill="#edae49"/>
    <rect x="1162" y="595" width="18" height="55" fill="#edae49"/>
    <text x="835" y="681" font-size="14" fill="#516070">柱子越低，越需要优先关注 / Lower bars need earlier attention</text>
  </g>
</svg>
