<svg xmlns="http://www.w3.org/2000/svg" width="1280" height="760" viewBox="0 0 1280 760" role="img" aria-label="Predictive maintenance dashboard preview">
  <rect width="1280" height="760" fill="#f3f6fa"/>
  <rect width="1280" height="92" fill="#14213d"/>
  <text x="42" y="60" font-family="Segoe UI, Arial, sans-serif" font-size="30" font-weight="700" fill="#ffffff">AI Predictive Maintenance Deployment Toolkit</text>
  <text x="42" y="80" font-family="Segoe UI, Arial, sans-serif" font-size="16" fill="#dce6f2">Fleet RUL monitoring, intervention queue, and deployment governance</text>
  <g font-family="Segoe UI, Arial, sans-serif">
    <g transform="translate(42 125)"><rect width="245" height="105" rx="8" fill="#ffffff" stroke="#d7dee8"/><rect width="5" height="105" fill="#3d5a80"/><text x="22" y="38" font-size="18" fill="#516070">Fleet assets</text><text x="22" y="83" font-size="30" font-weight="700" fill="#17202a">90</text></g>
    <g transform="translate(315 125)"><rect width="245" height="105" rx="8" fill="#ffffff" stroke="#d7dee8"/><rect width="5" height="105" fill="#d1495b"/><text x="22" y="38" font-size="18" fill="#516070">High risk</text><text x="22" y="83" font-size="30" font-weight="700" fill="#17202a">17</text></g>
    <g transform="translate(588 125)"><rect width="245" height="105" rx="8" fill="#ffffff" stroke="#d7dee8"/><rect width="5" height="105" fill="#edae49"/><text x="22" y="38" font-size="18" fill="#516070">Medium risk</text><text x="22" y="83" font-size="30" font-weight="700" fill="#17202a">19</text></g>
    <g transform="translate(861 125)"><rect width="245" height="105" rx="8" fill="#ffffff" stroke="#d7dee8"/><rect width="5" height="105" fill="#2a9d8f"/><text x="22" y="38" font-size="18" fill="#516070">Median RUL</text><text x="22" y="83" font-size="30" font-weight="700" fill="#17202a">69.9</text></g>
    <rect x="42" y="265" width="718" height="435" rx="8" fill="#ffffff" stroke="#d7dee8"/>
    <text x="66" y="317" font-size="24" font-weight="700" fill="#17202a">Maintenance Intervention Queue</text>
    <text x="66" y="353" font-size="16" font-weight="700" fill="#516070">Unit</text><text x="160" y="353" font-size="16" font-weight="700" fill="#516070">Cycle</text><text x="270" y="353" font-size="16" font-weight="700" fill="#516070">Pred RUL</text><text x="400" y="353" font-size="16" font-weight="700" fill="#516070">Risk</text><text x="500" y="353" font-size="16" font-weight="700" fill="#516070">Action</text>
    <g font-size="16" fill="#17202a">
      <line x1="66" y1="362" x2="735" y2="362" stroke="#edf1f5"/><text x="66" y="390">81</text><text x="160" y="390">193</text><text x="270" y="390">0.0</text><rect x="400" y="371" width="73" height="25" rx="6" fill="#d1495b"/><text x="410" y="389" font-size="13" font-weight="700" fill="#ffffff">HIGH</text><text x="500" y="390">Plan intervention in next maintenance window</text>
      <line x1="66" y1="395" x2="735" y2="395" stroke="#edf1f5"/><text x="66" y="423">68</text><text x="160" y="423">207</text><text x="270" y="423">0.8</text><rect x="400" y="404" width="73" height="25" rx="6" fill="#d1495b"/><text x="410" y="422" font-size="13" font-weight="700" fill="#ffffff">HIGH</text><text x="500" y="423">Plan intervention in next maintenance window</text>
      <line x1="66" y1="428" x2="735" y2="428" stroke="#edf1f5"/><text x="66" y="456">55</text><text x="160" y="456">201</text><text x="270" y="456">4.1</text><rect x="400" y="437" width="73" height="25" rx="6" fill="#d1495b"/><text x="410" y="455" font-size="13" font-weight="700" fill="#ffffff">HIGH</text><text x="500" y="456">Plan intervention in next maintenance window</text>
      <line x1="66" y1="461" x2="735" y2="461" stroke="#edf1f5"/><text x="66" y="489">76</text><text x="160" y="489">152</text><text x="270" y="489">4.5</text><rect x="400" y="470" width="73" height="25" rx="6" fill="#d1495b"/><text x="410" y="488" font-size="13" font-weight="700" fill="#ffffff">HIGH</text><text x="500" y="489">Plan intervention in next maintenance window</text>
      <line x1="66" y1="494" x2="735" y2="494" stroke="#edf1f5"/><text x="66" y="522">47</text><text x="160" y="522">206</text><text x="270" y="522">5.7</text><rect x="400" y="503" width="73" height="25" rx="6" fill="#d1495b"/><text x="410" y="521" font-size="13" font-weight="700" fill="#ffffff">HIGH</text><text x="500" y="522">Plan intervention in next maintenance window</text>
    </g>
    <rect x="800" y="265" width="438" height="435" rx="8" fill="#ffffff" stroke="#d7dee8"/>
    <text x="824" y="317" font-size="24" font-weight="700" fill="#17202a">Predicted RUL by Asset</text>
    <line x1="835" y1="650" x2="1208" y2="650" stroke="#ccd4dd" stroke-width="2"/><line x1="835" y1="345" x2="835" y2="650" stroke="#ccd4dd" stroke-width="2"/>
    <rect x="837" y="646" width="18" height="4" fill="#d1495b"/><rect x="862" y="644" width="18" height="6" fill="#d1495b"/><rect x="887" y="641" width="18" height="9" fill="#d1495b"/><rect x="912" y="637" width="18" height="13" fill="#d1495b"/><rect x="937" y="632" width="18" height="18" fill="#d1495b"/><rect x="962" y="626" width="18" height="24" fill="#d1495b"/><rect x="987" y="625" width="18" height="25" fill="#d1495b"/><rect x="1012" y="618" width="18" height="32" fill="#d1495b"/><rect x="1037" y="615" width="18" height="35" fill="#d1495b"/><rect x="1062" y="609" width="18" height="41" fill="#d1495b"/><rect x="1087" y="606" width="18" height="44" fill="#d1495b"/><rect x="1112" y="601" width="18" height="49" fill="#edae49"/><rect x="1137" y="598" width="18" height="52" fill="#edae49"/><rect x="1162" y="595" width="18" height="55" fill="#edae49"/>
    <text x="835" y="681" font-size="14" fill="#516070">Lower bars indicate assets requiring earlier maintenance attention</text>
  </g>
</svg>
